<?xml version="1.0" standalone="no"?>
<!DOCTYPE svg PUBLIC "-//W3C//DTD SVG 20010904//EN"
 "http://www.w3.org/TR/2001/REC-SVG-20010904/DTD/svg10.dtd">
<svg version="1.0" xmlns="http://www.w3.org/2000/svg"
 width="200.000000pt" height="200.000000pt" viewBox="0 0 200.000000 200.000000"
 preserveAspectRatio="xMidYMid meet">
<metadata>
Created by potrace 1.14, written by Peter Selinger 2001-2017
</metadata>
<g transform="translate(0.000000,200.000000) scale(0.100000,-0.100000)"
fill="#000000" stroke="none">
<path d="M866 1904 c-12 -11 -16 -36 -16 -99 l0 -83 -46 -11 c-199 -50 -386
-209 -474 -405 -16 -35 -34 -84 -41 -110 l-11 -46 -84 0 c-77 0 -85 -2 -99
-24 -16 -25 -8 -66 16 -81 6 -4 103 -9 215 -10 225 -3 244 2 244 54 0 41 -22
54 -97 55 -38 1 -68 6 -70 12 -6 19 36 119 76 180 73 113 185 202 307 244 31
11 59 20 61 20 1 0 3 -31 3 -69 0 -76 13 -101 55 -101 35 0 55 26 55 73 3 212
-2 381 -10 398 -13 23 -62 26 -84 3z"/>
<path d="M1040 1695 c-24 -44 -2 -70 72 -84 134 -27 257 -97 347 -197 51 -58
127 -197 133 -244 3 -24 2 -25 -71 -25 -60 -1 -76 -4 -87 -20 -18 -24 -18 -46
0 -71 13 -18 29 -19 223 -20 231 -2 253 3 253 55 0 43 -23 55 -109 57 -42 1
-79 2 -82 3 -4 0 -9 16 -13 34 -27 139 -155 324 -290 416 -92 64 -248 121
-328 121 -27 0 -38 -6 -48 -25z"/>
<path d="M928 1313 c-44 -28 -71 -87 -63 -139 19 -130 200 -161 258 -43 18 39
15 109 -7 140 -39 57 -131 77 -188 42z"/>
<path d="M927 998 c-120 -26 -218 -136 -233 -261 -6 -48 -4 -56 12 -64 15 -6
380 -9 573 -4 l34 1 -6 53 c-19 183 -200 314 -380 275z"/>
<path d="M299 952 c-27 -23 -31 -44 -18 -102 41 -176 140 -330 279 -434 73
-55 120 -79 210 -110 l75 -25 5 -88 c5 -84 6 -88 33 -101 42 -20 77 5 78 56 3
216 -2 396 -12 408 -6 8 -24 14 -40 14 -41 0 -57 -31 -55 -108 l2 -64 -30 6
c-57 12 -174 78 -235 132 -93 85 -178 227 -196 329 -10 51 -30 91 -50 99 -22
8 -20 9 -46 -12z"/>
<path d="M1644 960 c-16 -6 -24 -26 -37 -88 -51 -237 -233 -421 -472 -478 -38
-10 -76 -22 -82 -27 -20 -15 -15 -55 8 -78 23 -23 59 -21 162 12 114 36 197
88 293 184 76 76 97 105 137 185 71 145 90 255 50 286 -21 15 -30 16 -59 4z"/>
</g>
</svg>
